<svg xmlns="http://www.w3.org/2000/svg" xmlns:xlink="http://www.w3.org/1999/xlink" width="750" zoomAndPan="magnify" viewBox="0 0 562.5 564.749988" height="753" preserveAspectRatio="xMidYMid meet" version="1.0"><defs><g/><clipPath id="id1"><path d="M 55.023438 0.125 L 507.273438 0.125 L 507.273438 564.375 L 55.023438 564.375 Z M 55.023438 0.125 " clip-rule="nonzero"/></clipPath><clipPath id="id2"><path d="M 3.996094 14.929688 L 558 14.929688 L 558 564.375 L 3.996094 564.375 Z M 3.996094 14.929688 " clip-rule="nonzero"/></clipPath></defs><g clip-path="url(#id1)"><path fill="#e16539" d="M -1.777344 0.125 L 564.472656 0.125 L 564.472656 566.375 L -1.777344 566.375 Z M -1.777344 0.125 " fill-opacity="1" fill-rule="nonzero"/></g><g clip-path="url(#id2)"><path fill="#303030" d="M 551.980469 14.730469 L 443.484375 14.730469 C 440.335938 14.730469 437.785156 17.292969 437.785156 20.441406 L 437.785156 123.230469 L 334.984375 123.230469 C 331.835938 123.230469 329.28125 125.785156 329.28125 128.941406 L 329.28125 231.726562 L 226.496094 231.726562 C 223.339844 231.726562 220.792969 234.28125 220.792969 237.4375 L 220.792969 340.222656 L 118.003906 340.222656 C 114.847656 340.222656 112.292969 342.773438 112.292969 345.929688 L 112.292969 448.714844 L 9.507812 448.714844 C 6.351562 448.714844 3.796875 451.269531 3.796875 454.425781 L 3.796875 562.910156 C 3.796875 566.058594 6.351562 568.613281 9.507812 568.613281 L 551.980469 568.613281 C 555.128906 568.613281 557.683594 566.058594 557.683594 562.910156 L 557.683594 20.441406 C 557.683594 17.292969 555.128906 14.730469 551.980469 14.730469 Z M 551.980469 14.730469 " fill-opacity="1" fill-rule="nonzero"/></g><g fill="#291b25" fill-opacity="0.451"><g transform="translate(144.462518, 542.970198)"><g><path d="M 47.8125 -121.433594 L 8.660156 -121.433594 L 8.835938 -105.324219 L 46.25 -105.667969 C 52.835938 -105.667969 58.203125 -104.976562 62.707031 -102.898438 C 67.210938 -100.992188 71.542969 -98.21875 75.699219 -94.410156 C 85.226562 -84.1875 89.90625 -72.929688 89.90625 -60.457031 C 89.90625 -53.355469 88.867188 -47.117188 86.613281 -41.921875 C 84.535156 -36.722656 81.242188 -31.875 77.085938 -27.371094 C 73.449219 -23.386719 69.289062 -20.441406 64.441406 -18.535156 C 59.589844 -16.804688 53.699219 -15.765625 46.597656 -15.765625 L 25.464844 -15.9375 L 25.464844 -88.347656 L 8.660156 -88.347656 L 8.660156 0 L 47.8125 0.171875 C 66.171875 0.171875 80.722656 -5.371094 91.289062 -16.109375 C 102.03125 -27.023438 107.226562 -41.746094 107.226562 -60.457031 C 107.226562 -79.339844 102.03125 -94.0625 91.289062 -104.800781 C 80.550781 -115.890625 66 -121.433594 47.8125 -121.433594 Z M 47.8125 -121.433594 "/></g></g></g><g fill="#291b25" fill-opacity="0.451"><g transform="translate(260.177834, 542.970198)"><g/></g></g><g fill="#291b25" fill-opacity="0.451"><g transform="translate(294.823139, 542.970198)"><g><path d="M 24.597656 0 L 24.597656 -101.859375 L 68.25 -19.574219 L 68.25 -51.101562 L 30.835938 -121.777344 L 8.660156 -121.777344 L 8.660156 0 Z M 100.820312 0 L 100.820312 -121.777344 L 84.882812 -121.777344 L 84.882812 0 Z M 100.820312 0 "/></g></g></g><g fill="#291b25" fill-opacity="0.451"><g transform="translate(404.129089, 542.970198)"><g/></g></g><g fill="#291b25" fill-opacity="0.451"><g transform="translate(438.774382, 542.970198)"><g><path d="M 8.660156 -55.433594 C 9.699219 -39.148438 14.898438 -26.15625 24.425781 -16.109375 C 35.164062 -5.371094 49.542969 0 67.90625 0 L 107.054688 -0.171875 L 106.882812 -16.109375 L 69.117188 -15.9375 C 62.1875 -15.9375 56.300781 -16.804688 51.449219 -18.535156 C 46.597656 -20.441406 42.441406 -23.386719 38.628906 -27.542969 C 31.179688 -35.859375 27.023438 -45.039062 26.15625 -55.433594 Z M 67.90625 -121.605469 C 49.890625 -121.605469 35.339844 -116.0625 24.425781 -104.976562 C 15.765625 -96.316406 10.738281 -84.882812 9.007812 -70.675781 L 26.851562 -70.675781 C 28.753906 -78.992188 33.085938 -86.960938 40.015625 -94.582031 C 44.171875 -98.394531 48.503906 -100.992188 53.007812 -102.898438 C 57.511719 -104.976562 63.054688 -105.84375 69.464844 -105.84375 L 106.882812 -105.496094 L 107.054688 -121.605469 Z M 67.90625 -121.605469 "/></g></g></g><g fill="#f0dfc8" fill-opacity="1"><g transform="translate(140.940926, 539.448592)"><g><path d="M 47.8125 -121.433594 L 8.660156 -121.433594 L 8.835938 -105.324219 L 46.25 -105.667969 C 52.835938 -105.667969 58.203125 -104.976562 62.707031 -102.898438 C 67.210938 -100.992188 71.542969 -98.21875 75.699219 -94.410156 C 85.226562 -84.1875 89.90625 -72.929688 89.90625 -60.457031 C 89.90625 -53.355469 88.867188 -47.117188 86.613281 -41.921875 C 84.535156 -36.722656 81.242188 -31.875 77.085938 -27.371094 C 73.449219 -23.386719 69.289062 -20.441406 64.441406 -18.535156 C 59.589844 -16.804688 53.699219 -15.765625 46.597656 -15.765625 L 25.464844 -15.9375 L 25.464844 -88.347656 L 8.660156 -88.347656 L 8.660156 0 L 47.8125 0.171875 C 66.171875 0.171875 80.722656 -5.371094 91.289062 -16.109375 C 102.03125 -27.023438 107.226562 -41.746094 107.226562 -60.457031 C 107.226562 -79.339844 102.03125 -94.0625 91.289062 -104.800781 C 80.550781 -115.890625 66 -121.433594 47.8125 -121.433594 Z M 47.8125 -121.433594 "/></g></g></g><g fill="#f0dfc8" fill-opacity="1"><g transform="translate(256.656243, 539.448592)"><g/></g></g><g fill="#f0dfc8" fill-opacity="1"><g transform="translate(291.301547, 539.448592)"><g><path d="M 24.597656 0 L 24.597656 -101.859375 L 68.25 -19.574219 L 68.25 -51.101562 L 30.835938 -121.777344 L 8.660156 -121.777344 L 8.660156 0 Z M 100.820312 0 L 100.820312 -121.777344 L 84.882812 -121.777344 L 84.882812 0 Z M 100.820312 0 "/></g></g></g><g fill="#f0dfc8" fill-opacity="1"><g transform="translate(400.607498, 539.448592)"><g/></g></g><g fill="#f0dfc8" fill-opacity="1"><g transform="translate(435.252791, 539.448592)"><g><path d="M 8.660156 -55.433594 C 9.699219 -39.148438 14.898438 -26.15625 24.425781 -16.109375 C 35.164062 -5.371094 49.542969 0 67.90625 0 L 107.054688 -0.171875 L 106.882812 -16.109375 L 69.117188 -15.9375 C 62.1875 -15.9375 56.300781 -16.804688 51.449219 -18.535156 C 46.597656 -20.441406 42.441406 -23.386719 38.628906 -27.542969 C 31.179688 -35.859375 27.023438 -45.039062 26.15625 -55.433594 Z M 67.90625 -121.605469 C 49.890625 -121.605469 35.339844 -116.0625 24.425781 -104.976562 C 15.765625 -96.316406 10.738281 -84.882812 9.007812 -70.675781 L 26.851562 -70.675781 C 28.753906 -78.992188 33.085938 -86.960938 40.015625 -94.582031 C 44.171875 -98.394531 48.503906 -100.992188 53.007812 -102.898438 C 57.511719 -104.976562 63.054688 -105.84375 69.464844 -105.84375 L 106.882812 -105.496094 L 107.054688 -121.605469 Z M 67.90625 -121.605469 "/></g></g></g></svg>